<svg xmlns="http://www.w3.org/2000/svg" width="80" height="80" viewBox="0 0 24 24" fill="none" stroke="currentColor" stroke-width="2" stroke-linecap="round" stroke-linejoin="round" class="lucide lucide-image-off"><path d="M14.5 4h-5L7 7H4a2 2 0 0 0-2 2v9a2 2 0 0 0 2 2h16a2 2 0 0 0 2-2V9a2 2 0 0 0-2-2h-3l-2.5-3z"/><path d="m2 2 20 20"/><circle cx="9" cy="13" r="2"/><path d="M17.5 10.5c-1 0-1.8.8-1.8 1.8v.4"/><path d="M14.6 13a2 2 0 0 1-2.1 2.1"/><path d="M21 15.5V9a2 2 0 0 0-2-2h-3.5l-2-3h-5l-.5.5"/></svg>
